<svg width="35" height="34" viewBox="0 0 35 34" fill="none" xmlns="http://www.w3.org/2000/svg">
<path d="M9.02942 2.83337L4.77942 8.50004V28.3334C4.77942 29.0848 5.07793 29.8055 5.60928 30.3368C6.14064 30.8682 6.86131 31.1667 7.61275 31.1667H27.4461C28.1975 31.1667 28.9182 30.8682 29.4496 30.3368C29.9809 29.8055 30.2794 29.0848 30.2794 28.3334V8.50004L26.0294 2.83337H9.02942Z" stroke="black" stroke-width="2.83333" stroke-linecap="round" stroke-linejoin="round"/>
<path d="M4.77942 8.5H30.2794" stroke="black" stroke-width="2.83333" stroke-linecap="round" stroke-linejoin="round"/>
<path d="M23.1961 14.1666C23.1961 15.6695 22.599 17.1109 21.5363 18.1736C20.4736 19.2363 19.0323 19.8333 17.5294 19.8333C16.0265 19.8333 14.5852 19.2363 13.5225 18.1736C12.4598 17.1109 11.8627 15.6695 11.8627 14.1666" stroke="black" stroke-width="2.83333" stroke-linecap="round" stroke-linejoin="round"/>
</svg>
