<svg width="151" height="44" viewBox="0 0 151 44" fill="none" xmlns="http://www.w3.org/2000/svg">
<circle cx="21.5928" cy="21.5928" r="21.1284" stroke="black" stroke-width="0.928815"/>
<circle cx="75.1429" cy="21.5928" r="21.1284" stroke="black" stroke-width="0.928815"/>
<circle cx="128.693" cy="21.5928" r="21.1284" stroke="black" stroke-width="0.928815"/>
<path d="M142.734 13.3944C141.686 13.8487 140.579 14.149 139.446 14.286C140.641 13.5718 141.537 12.4481 141.967 11.1234C140.844 11.7923 139.614 12.2635 138.331 12.5166C137.473 11.5868 136.332 10.9678 135.084 10.7568C133.837 10.5458 132.555 10.7547 131.44 11.3508C130.324 11.9468 129.438 12.8963 128.92 14.0504C128.402 15.2044 128.282 16.4976 128.578 17.7273C126.307 17.6124 124.084 17.0209 122.056 15.9912C120.028 14.9614 118.239 13.5166 116.806 11.7504C116.303 12.6283 116.039 13.6226 116.039 14.6343C116.038 15.5739 116.268 16.4993 116.711 17.3282C117.153 18.1571 117.793 18.8638 118.575 19.3852C117.667 19.3605 116.778 19.1168 115.984 18.6747V18.7444C115.99 20.0608 116.452 21.3345 117.29 22.35C118.127 23.3654 119.29 24.0604 120.581 24.3172C120.084 24.4685 119.568 24.5482 119.049 24.5541C118.689 24.5499 118.33 24.5173 117.976 24.4566C118.344 25.589 119.055 26.5786 120.012 27.2878C120.968 27.997 122.122 28.3904 123.312 28.4133C121.302 29.995 118.82 30.8582 116.262 30.8654C115.797 30.8669 115.331 30.839 114.869 30.7818C117.481 32.4679 120.524 33.363 123.632 33.3593C125.778 33.3815 127.906 32.9761 129.892 32.1668C131.879 31.3574 133.685 30.1603 135.203 28.6453C136.722 27.1303 137.924 25.3279 138.739 23.3432C139.553 21.3586 139.964 19.2316 139.947 17.0864C139.947 16.8496 139.947 16.5988 139.947 16.348C141.04 15.5327 141.983 14.5332 142.734 13.3944Z" fill="black"/>
<path d="M81.8739 13.3184C81.5653 13.3184 81.2636 13.4099 81.007 13.5814C80.7504 13.7528 80.5504 13.9965 80.4323 14.2817C80.3142 14.5668 80.2833 14.8805 80.3435 15.1832C80.4037 15.4859 80.5523 15.764 80.7705 15.9822C80.9888 16.2004 81.2668 16.349 81.5695 16.4092C81.8722 16.4694 82.1859 16.4385 82.4711 16.3204C82.7562 16.2023 82.9999 16.0023 83.1714 15.7457C83.3428 15.4891 83.4343 15.1874 83.4343 14.8788C83.4343 14.465 83.2699 14.0681 82.9773 13.7754C82.6847 13.4828 82.2878 13.3184 81.8739 13.3184ZM87.8555 16.4652C87.8302 15.3863 87.6281 14.3189 87.2573 13.3054C86.9267 12.4382 86.4121 11.653 85.7489 11.0038C85.105 10.3373 84.318 9.82591 83.4473 9.50839C82.4365 9.1263 81.3679 8.91961 80.2875 8.89723C78.9091 8.81921 78.467 8.81921 74.9301 8.81921C71.3932 8.81921 70.9511 8.81921 69.5727 8.89723C68.4923 8.91961 67.4237 9.1263 66.4129 9.50839C65.5438 9.82912 64.7575 10.34 64.1113 11.0038C63.4447 11.6477 62.9334 12.4347 62.6159 13.3054C62.2338 14.3162 62.0271 15.3848 62.0047 16.4652C61.9267 17.8436 61.9267 18.2857 61.9267 21.8226C61.9267 25.3596 61.9267 25.8017 62.0047 27.18C62.0271 28.2604 62.2338 29.329 62.6159 30.3399C62.9334 31.2105 63.4447 31.9976 64.1113 32.6415C64.7575 33.3052 65.5438 33.8161 66.4129 34.1369C67.4237 34.5189 68.4923 34.7256 69.5727 34.748C70.9511 34.826 71.3932 34.826 74.9301 34.826C78.467 34.826 78.9091 34.826 80.2875 34.748C81.3679 34.7256 82.4365 34.5189 83.4473 34.1369C84.318 33.8193 85.105 33.308 85.7489 32.6415C86.415 31.9946 86.9301 31.2087 87.2573 30.3399C87.6281 29.3264 87.8302 28.2589 87.8555 27.18C87.8555 25.8017 87.9335 25.3596 87.9335 21.8226C87.9335 18.2857 87.9335 17.8436 87.8555 16.4652ZM85.5149 27.024C85.5054 27.8494 85.3559 28.6672 85.0728 29.4426C84.8651 30.0085 84.5317 30.5199 84.0975 30.938C83.6757 31.3678 83.1655 31.7006 82.6021 31.9133C81.8267 32.1964 81.0089 32.3459 80.1835 32.3554C78.8831 32.4204 78.402 32.4334 74.9821 32.4334C71.5622 32.4334 71.0811 32.4334 69.7808 32.3554C68.9237 32.3714 68.0703 32.2395 67.2581 31.9653C66.7195 31.7417 66.2326 31.4098 65.8277 30.99C65.3961 30.5723 65.0668 30.0605 64.8655 29.4946C64.548 28.7081 64.3719 27.8717 64.3453 27.024C64.3453 25.7236 64.2673 25.2425 64.2673 21.8226C64.2673 18.4027 64.2673 17.9216 64.3453 16.6213C64.3512 15.7774 64.5052 14.9411 64.8005 14.1506C65.0294 13.6018 65.3807 13.1125 65.8277 12.7202C66.2228 12.2731 66.711 11.9181 67.2581 11.68C68.0507 11.3939 68.8861 11.2445 69.7287 11.2378C71.0291 11.2378 71.5102 11.1598 74.9301 11.1598C78.35 11.1598 78.8311 11.1598 80.1315 11.2378C80.9569 11.2473 81.7747 11.3968 82.5501 11.68C83.141 11.8993 83.6714 12.2558 84.0975 12.7202C84.5236 13.1197 84.8566 13.608 85.0728 14.1506C85.3618 14.9424 85.5114 15.7784 85.5149 16.6213C85.5799 17.9216 85.5929 18.4027 85.5929 21.8226C85.5929 25.2425 85.5799 25.7236 85.5149 27.024ZM74.9301 15.1519C73.6113 15.1544 72.3229 15.5479 71.2276 16.2824C70.1323 17.017 69.2793 18.0597 68.7764 19.2788C68.2735 20.498 68.1433 21.8388 68.4021 23.132C68.661 24.4251 69.2973 25.6125 70.2308 26.5441C71.1642 27.4758 72.3528 28.1098 73.6465 28.3661C74.9401 28.6225 76.2807 28.4896 77.4989 27.9843C78.7171 27.4791 79.7581 26.6241 80.4905 25.5273C81.2229 24.4306 81.6139 23.1414 81.6139 21.8226C81.6156 20.945 81.4438 20.0758 81.1083 19.2648C80.7729 18.4538 80.2804 17.7172 79.6593 17.0972C79.0381 16.4773 78.3005 15.9863 77.4889 15.6524C76.6773 15.3186 75.8077 15.1484 74.9301 15.1519ZM74.9301 26.1528C74.0737 26.1528 73.2365 25.8988 72.5244 25.423C71.8123 24.9472 71.2573 24.2709 70.9296 23.4797C70.6018 22.6885 70.5161 21.8178 70.6832 20.9779C70.8503 20.1379 71.2627 19.3663 71.8682 18.7608C72.4738 18.1552 73.2454 17.7428 74.0853 17.5757C74.9253 17.4086 75.7959 17.4944 76.5872 17.8221C77.3784 18.1498 78.0547 18.7048 78.5305 19.4169C79.0063 20.129 79.2602 20.9662 79.2602 21.8226C79.2602 22.3913 79.1482 22.9543 78.9306 23.4797C78.713 24.005 78.3941 24.4824 77.992 24.8845C77.5899 25.2866 77.1125 25.6055 76.5872 25.8231C76.0618 26.0408 75.4987 26.1528 74.9301 26.1528Z" fill="black"/>
<path d="M26.1224 7.78204L26.1026 7.78395L26.0811 7.78402C22.9155 7.794 21.2222 8.89361 20.2866 10.3849C19.3231 11.9206 19.1043 13.9591 19.1026 15.9544L19.1026 16.0091L19.0898 16.0623C19.0891 16.0651 19.0888 16.0679 19.0888 16.0707C19.0888 16.0708 19.0888 16.0708 19.0888 16.0709L19.0888 18.8903V19.3547H18.6244H14.122C14.1143 19.3547 14.1069 19.3578 14.1013 19.3633C14.0958 19.3688 14.0926 19.3764 14.0926 19.3844V26.3394C14.0926 26.3474 14.0958 26.355 14.1013 26.3605C14.1069 26.366 14.1143 26.3691 14.122 26.3691H18.6244H19.0888V26.8335V42.0959C19.0888 42.1038 19.0919 42.1114 19.0975 42.117L18.769 42.4452L19.0975 42.117C19.103 42.1225 19.1105 42.1255 19.1182 42.1255H25.689C25.6967 42.1255 25.7042 42.1225 25.7097 42.117C25.7152 42.1114 25.7184 42.1038 25.7184 42.0959V26.834V26.3696H26.1828H32.6396C32.6473 26.3696 32.6547 26.3665 32.6602 26.361C32.6658 26.3555 32.6689 26.3479 32.6689 26.3399V19.3849C32.6689 19.3769 32.6658 19.3693 32.6602 19.3638L32.9887 19.0355L32.6602 19.3638C32.6547 19.3583 32.6473 19.3552 32.6396 19.3552H25.689H25.2246V18.8908V16.4028C25.2246 15.4556 25.9924 14.6877 26.9396 14.6877H32.6396C32.6473 14.6877 32.6547 14.6847 32.6602 14.6791L32.9887 15.0074L32.6602 14.6791C32.6658 14.6736 32.6689 14.666 32.6689 14.6581V7.81171V7.81125C32.6689 7.80738 32.6682 7.80355 32.6667 7.79998C32.6652 7.79641 32.6631 7.79319 32.6604 7.7905M26.1224 7.78204L32.6604 7.7905M26.1224 7.78204H26.124H32.6401C32.6438 7.78204 32.6475 7.78279 32.651 7.78423C32.6545 7.78568 32.6577 7.7878 32.6604 7.7905M26.1224 7.78204L32.989 7.46238L32.6604 7.7905" fill="black" stroke="black" stroke-width="0.928815"/>
</svg>
